<svg height='100px' width='100px'  fill="#000000" xmlns:dc="http://purl.org/dc/elements/1.1/" xmlns:cc="http://creativecommons.org/ns#" xmlns:rdf="http://www.w3.org/1999/02/22-rdf-syntax-ns#" xmlns:svg="http://www.w3.org/2000/svg" xmlns="http://www.w3.org/2000/svg" xmlns:sodipodi="http://sodipodi.sourceforge.net/DTD/sodipodi-0.dtd" xmlns:inkscape="http://www.inkscape.org/namespaces/inkscape" viewBox="0 0 16.933333 16.933334" version="1.1" x="0px" y="0px"><g transform="translate(0,-280.06665)"><path style="color:#000000;font-style:normal;font-variant:normal;font-weight:normal;font-stretch:normal;font-size:medium;line-height:normal;font-family:sans-serif;font-variant-ligatures:normal;font-variant-position:normal;font-variant-caps:normal;font-variant-numeric:normal;font-variant-alternates:normal;font-feature-settings:normal;text-indent:0;text-align:start;text-decoration:none;text-decoration-line:none;text-decoration-style:solid;text-decoration-color:#000000;letter-spacing:normal;word-spacing:normal;text-transform:none;writing-mode:lr-tb;direction:ltr;text-orientation:mixed;dominant-baseline:auto;baseline-shift:baseline;text-anchor:start;white-space:normal;shape-padding:0;clip-rule:nonzero;display:inline;overflow:visible;visibility:visible;opacity:1;isolation:auto;mix-blend-mode:normal;color-interpolation:sRGB;color-interpolation-filters:linearRGB;solid-color:#000000;solid-opacity:1;vector-effect:none;fill:#000000;fill-opacity:1;fill-rule:nonzero;stroke:none;stroke-width:0.52899998;stroke-linecap:round;stroke-linejoin:round;stroke-miterlimit:4;stroke-dasharray:none;stroke-dashoffset:0;stroke-opacity:1;paint-order:normal;color-rendering:auto;image-rendering:auto;shape-rendering:auto;text-rendering:auto;enable-background:accumulate" d="m 6.350279,281.38955 a 0.26446413,0.26452248 0 0 0 -0.2656152,0.26562 v 7.1422 H 2.6456095 a 0.26446413,0.26452248 0 0 0 -0.1855258,0.4532 l 5.5536572,5.5547 a 0.26446413,0.26452248 0 0 0 0.3746765,0 l 0.9301692,-0.93018 c -0.038047,-0.18735 -0.057891,-0.3809 -0.057891,-0.57929 0,-1.6044 1.3060364,-2.91042 2.9104164,-2.91042 0.198412,0 0.391928,0.0204 0.579306,0.0584 l 1.19372,-1.19321 a 0.26446413,0.26452248 0 0 0 -0.187589,-0.4532 h -3.438552 v -7.1422 a 0.26446413,0.26452248 0 0 0 -0.263551,-0.26562 z"></path><path style="color:#000000;font-style:normal;font-variant:normal;font-weight:normal;font-stretch:normal;font-size:medium;line-height:normal;font-family:sans-serif;font-variant-ligatures:normal;font-variant-position:normal;font-variant-caps:normal;font-variant-numeric:normal;font-variant-alternates:normal;font-feature-settings:normal;text-indent:0;text-align:start;text-decoration:none;text-decoration-line:none;text-decoration-style:solid;text-decoration-color:#000000;letter-spacing:normal;word-spacing:normal;text-transform:none;writing-mode:lr-tb;direction:ltr;text-orientation:mixed;dominant-baseline:auto;baseline-shift:baseline;text-anchor:start;white-space:normal;shape-padding:0;clip-rule:nonzero;display:inline;overflow:visible;visibility:visible;opacity:1;isolation:auto;mix-blend-mode:normal;color-interpolation:sRGB;color-interpolation-filters:linearRGB;solid-color:#000000;solid-opacity:1;vector-effect:none;fill:#000000;fill-opacity:1;fill-rule:nonzero;stroke:none;stroke-width:0.5291667;stroke-linecap:butt;stroke-linejoin:round;stroke-miterlimit:4;stroke-dasharray:none;stroke-dashoffset:0;stroke-opacity:1;paint-order:normal;color-rendering:auto;image-rendering:auto;shape-rendering:auto;text-rendering:auto;enable-background:accumulate" d="m 12.171112,290.91455 c -1.318471,0 -2.3812496,1.06276 -2.3812496,2.38125 0,1.31848 1.0627786,2.38125 2.3812496,2.38125 1.318499,0 2.381251,-1.06277 2.381251,-2.38125 0,-1.31849 -1.062752,-2.38125 -2.381251,-2.38125 z m 1.409224,1.387 a 0.26460982,0.26460982 0 0 1 0.190183,0.45527 l -1.83814,1.83606 a 0.26460982,0.26460982 0 0 1 -0.373115,0 l -1.162183,-1.16427 a 0.26460982,0.26460982 0 1 1 0.373089,-0.37259 l 0.976683,0.97462 1.648487,-1.64848 a 0.26460982,0.26460982 0 0 1 0.181371,-0.0801 0.26460982,0.26460982 0 0 1 0.0037,-5.3e-4 z"></path></g></svg>