<svg height='100px' width='100px'  fill="#000000" xmlns:dc="http://purl.org/dc/elements/1.1/" xmlns:cc="http://creativecommons.org/ns#" xmlns:rdf="http://www.w3.org/1999/02/22-rdf-syntax-ns#" xmlns:svg="http://www.w3.org/2000/svg" xmlns="http://www.w3.org/2000/svg" xmlns:sodipodi="http://sodipodi.sourceforge.net/DTD/sodipodi-0.dtd" xmlns:inkscape="http://www.inkscape.org/namespaces/inkscape" viewBox="0 0 16.933333 16.933334" version="1.1" x="0px" y="0px"><g transform="translate(0,-280.06665)"><path style="color:#000000;font-style:normal;font-variant:normal;font-weight:normal;font-stretch:normal;font-size:medium;line-height:normal;font-family:sans-serif;font-variant-ligatures:normal;font-variant-position:normal;font-variant-caps:normal;font-variant-numeric:normal;font-variant-alternates:normal;font-feature-settings:normal;text-indent:0;text-align:start;text-decoration:none;text-decoration-line:none;text-decoration-style:solid;text-decoration-color:#000000;letter-spacing:normal;word-spacing:normal;text-transform:none;writing-mode:lr-tb;direction:ltr;text-orientation:mixed;dominant-baseline:auto;baseline-shift:baseline;text-anchor:start;white-space:normal;shape-padding:0;clip-rule:nonzero;display:inline;overflow:visible;visibility:visible;opacity:1;isolation:auto;mix-blend-mode:normal;color-interpolation:sRGB;color-interpolation-filters:linearRGB;solid-color:#000000;solid-opacity:1;vector-effect:none;fill:#000000;fill-opacity:1;fill-rule:nonzero;stroke:none;stroke-width:0.5291667;stroke-linecap:round;stroke-linejoin:round;stroke-miterlimit:4;stroke-dasharray:none;stroke-dashoffset:0;stroke-opacity:1;color-rendering:auto;image-rendering:auto;shape-rendering:auto;text-rendering:auto;enable-background:accumulate" d="m 11.906544,290.1208 c -1.604381,0 -2.910417,1.30603 -2.910417,2.91042 0,1.60439 1.306036,2.91042 2.910417,2.91042 1.60438,0 2.910416,-1.30603 2.910416,-2.91042 0,-1.60439 -1.306036,-2.91042 -2.910416,-2.91042 z m 0,0.52917 c 1.318392,0 2.38125,1.06287 2.38125,2.38125 0,1.31839 -1.062858,2.38125 -2.38125,2.38125 -1.318366,0 -2.3827849,-1.06286 -2.3827849,-2.38125 0,-1.31838 1.0644189,-2.38125 2.3827849,-2.38125 z m 1.404064,1.38544 a 0.26460982,0.26460982 0 0 0 -0.181901,0.0801 l -1.647957,1.65055 -0.974619,-0.97669 a 0.26529232,0.26529232 0 1 0 -0.37518,0.37518 l 1.162209,1.16168 a 0.26460982,0.26460982 0 0 0 0.37465,0 l 1.836076,-1.83555 a 0.26460982,0.26460982 0 0 0 -0.193278,-0.45527 z"></path><path style="color:#000000;font-style:normal;font-variant:normal;font-weight:normal;font-stretch:normal;font-size:medium;line-height:normal;font-family:sans-serif;font-variant-ligatures:normal;font-variant-position:normal;font-variant-caps:normal;font-variant-numeric:normal;font-variant-alternates:normal;font-feature-settings:normal;text-indent:0;text-align:start;text-decoration:none;text-decoration-line:none;text-decoration-style:solid;text-decoration-color:#000000;letter-spacing:normal;word-spacing:normal;text-transform:none;writing-mode:lr-tb;direction:ltr;text-orientation:mixed;dominant-baseline:auto;baseline-shift:baseline;text-anchor:start;white-space:normal;shape-padding:0;clip-rule:nonzero;display:inline;overflow:visible;visibility:visible;opacity:1;isolation:auto;mix-blend-mode:normal;color-interpolation:sRGB;color-interpolation-filters:linearRGB;solid-color:#000000;solid-opacity:1;vector-effect:none;fill:#000000;fill-opacity:1;fill-rule:nonzero;stroke:none;stroke-width:0.52899998;stroke-linecap:round;stroke-linejoin:round;stroke-miterlimit:4;stroke-dasharray:none;stroke-dashoffset:0;stroke-opacity:1;paint-order:normal;color-rendering:auto;image-rendering:auto;shape-rendering:auto;text-rendering:auto;enable-background:accumulate" d="m 6.0857103,281.12497 c -0.1461294,-3e-5 -0.2646098,0.11845 -0.2645834,0.26458 v 7.14375 H 2.3815435 c -0.2357702,-9e-5 -0.3538802,0.28502 -0.1870604,0.45165 l 5.5562501,5.55625 c 0.1033198,0.10334 0.2708275,0.10334 0.3741473,0 l 0.3854979,-0.38499 c 0.1036373,-0.10338 0.1036373,-0.27127 0,-0.37465 -0.1033727,-0.10364 -0.2712773,-0.10364 -0.37465,0 v 5.3e-4 l -0.1979348,0.19792 -4.9175195,-4.91753 h 3.0654362 c 0.1461293,3e-5 0.2646098,-0.11844 0.2645833,-0.26458 v -7.14375 h 3.1750001 v 7.14375 c -2.65e-5,0.14614 0.1184539,0.26461 0.2645833,0.26458 h 3.065463 l -0.198967,0.19896 a 0.26458337,0.26458337 0 0 0 0,0.37414 0.26458337,0.26458337 0 0 0 0.37465,0 l 0.650108,-0.65061 c 0.166819,-0.16665 0.04871,-0.45177 -0.187087,-0.45165 H 10.05446 v -7.14375 c 2.7e-5,-0.14614 -0.1184536,-0.26462 -0.264583,-0.26459 z"></path></g></svg>