<svg height='100px' width='100px'  fill="#000000" xmlns:dc="http://purl.org/dc/elements/1.1/" xmlns:cc="http://creativecommons.org/ns#" xmlns:rdf="http://www.w3.org/1999/02/22-rdf-syntax-ns#" xmlns:svg="http://www.w3.org/2000/svg" xmlns="http://www.w3.org/2000/svg" xmlns:sodipodi="http://sodipodi.sourceforge.net/DTD/sodipodi-0.dtd" xmlns:inkscape="http://www.inkscape.org/namespaces/inkscape" viewBox="0 0 16.933333 16.933334" version="1.1" x="0px" y="0px"><g transform="translate(0,-280.06665)"><path style="color:#000000;font-style:normal;font-variant:normal;font-weight:normal;font-stretch:normal;font-size:medium;line-height:normal;font-family:sans-serif;font-variant-ligatures:normal;font-variant-position:normal;font-variant-caps:normal;font-variant-numeric:normal;font-variant-alternates:normal;font-feature-settings:normal;text-indent:0;text-align:start;text-decoration:none;text-decoration-line:none;text-decoration-style:solid;text-decoration-color:#000000;letter-spacing:normal;word-spacing:normal;text-transform:none;writing-mode:lr-tb;direction:ltr;text-orientation:mixed;dominant-baseline:auto;baseline-shift:baseline;text-anchor:start;white-space:normal;shape-padding:0;clip-rule:nonzero;display:inline;overflow:visible;visibility:visible;opacity:1;isolation:auto;mix-blend-mode:normal;color-interpolation:sRGB;color-interpolation-filters:linearRGB;solid-color:#000000;solid-opacity:1;vector-effect:none;fill:#000000;fill-opacity:1;fill-rule:nonzero;stroke:none;stroke-width:0.5291667;stroke-linecap:round;stroke-linejoin:round;stroke-miterlimit:4;stroke-dasharray:none;stroke-dashoffset:0;stroke-opacity:1;color-rendering:auto;image-rendering:auto;shape-rendering:auto;text-rendering:auto;enable-background:accumulate" d="m 11.641952,290.12083 c -1.604407,0 -2.9104169,1.30602 -2.9104169,2.91041 0,1.60439 1.3060099,2.91042 2.9104169,2.91042 1.60438,0 2.910417,-1.30603 2.910417,-2.91042 0,-1.60439 -1.306037,-2.91041 -2.910417,-2.91041 z m 0,0.52916 c 1.318392,0 2.380747,1.06287 2.380747,2.38125 0,1.31838 -1.062355,2.38125 -2.380747,2.38125 -1.318366,0 -2.3812502,-1.06287 -2.3812502,-2.38125 0,-1.31838 1.0628842,-2.38125 2.3812502,-2.38125 z m 1.405599,1.38751 a 0.26460982,0.26460982 0 0 0 -0.181372,0.0801 l -1.65055,1.64848 -0.97462,-0.97462 a 0.26460982,0.26460982 0 1 0 -0.3731149,0.37311 l 1.1622089,1.16168 a 0.26460982,0.26460982 0 0 0 0.373115,0 l 1.83605,-1.83554 a 0.26460982,0.26460982 0 0 0 -0.191717,-0.45321 z"></path><path style="color:#000000;font-style:normal;font-variant:normal;font-weight:normal;font-stretch:normal;font-size:medium;line-height:normal;font-family:sans-serif;font-variant-ligatures:normal;font-variant-position:normal;font-variant-caps:normal;font-variant-numeric:normal;font-variant-alternates:normal;font-feature-settings:normal;text-indent:0;text-align:start;text-decoration:none;text-decoration-line:none;text-decoration-style:solid;text-decoration-color:#000000;letter-spacing:normal;word-spacing:normal;text-transform:none;writing-mode:lr-tb;direction:ltr;text-orientation:mixed;dominant-baseline:auto;baseline-shift:baseline;text-anchor:start;white-space:normal;shape-padding:0;clip-rule:nonzero;display:inline;overflow:visible;visibility:visible;opacity:1;isolation:auto;mix-blend-mode:normal;color-interpolation:sRGB;color-interpolation-filters:linearRGB;solid-color:#000000;solid-opacity:1;vector-effect:none;fill:#000000;fill-opacity:1;fill-rule:nonzero;stroke:none;stroke-width:0.52899998;stroke-linecap:round;stroke-linejoin:round;stroke-miterlimit:4;stroke-dasharray:none;stroke-dashoffset:0;stroke-opacity:1;paint-order:normal;color-rendering:auto;image-rendering:auto;shape-rendering:auto;text-rendering:auto;enable-background:accumulate" d="m 8.1982409,281.12499 c -0.068739,10e-4 -0.1343554,0.0289 -0.1829329,0.0775 l -5.5562502,5.55625 c -0.1667668,0.16664 -0.04871,0.45173 0.1870605,0.45165 h 3.4395834 v 7.14375 c -2.65e-5,0.14614 0.1184539,0.26461 0.2645833,0.26458 h 1.8329805 c 0.1461294,0 0.2645833,-0.11846 0.2645833,-0.26458 0,-0.14613 -0.1184539,-0.26458 -0.2645833,-0.26458 H 6.6148684 v -7.14376 c 2.64e-5,-0.14613 -0.118454,-0.26461 -0.2645834,-0.26458 H 3.2848489 l 4.9175195,-4.91753 4.9175456,4.91753 h -3.065462 c -0.1461296,-3e-5 -0.26461,0.11845 -0.2645836,0.26458 v 2.74092 a 0.26458337,0.26458337 0 0 0 0.2645836,0.26458 0.26458337,0.26458337 0 0 0 0.264583,-0.26458 v -2.47633 h 3.439584 c 0.23577,10e-5 0.35388,-0.285 0.187086,-0.45165 l -5.5562497,-5.55625 c -0.050668,-0.0507 -0.1196181,-0.0786 -0.1912144,-0.0775 z"></path></g></svg>