<svg height='100px' width='100px'  fill="#000000" xmlns:dc="http://purl.org/dc/elements/1.1/" xmlns:cc="http://creativecommons.org/ns#" xmlns:rdf="http://www.w3.org/1999/02/22-rdf-syntax-ns#" xmlns:svg="http://www.w3.org/2000/svg" xmlns="http://www.w3.org/2000/svg" xmlns:sodipodi="http://sodipodi.sourceforge.net/DTD/sodipodi-0.dtd" xmlns:inkscape="http://www.inkscape.org/namespaces/inkscape" viewBox="0 0 16.933333 16.933334" version="1.1" x="0px" y="0px"><g transform="translate(0,-280.06665)"><path style="color:#000000;font-style:normal;font-variant:normal;font-weight:normal;font-stretch:normal;font-size:medium;line-height:normal;font-family:sans-serif;font-variant-ligatures:normal;font-variant-position:normal;font-variant-caps:normal;font-variant-numeric:normal;font-variant-alternates:normal;font-feature-settings:normal;text-indent:0;text-align:start;text-decoration:none;text-decoration-line:none;text-decoration-style:solid;text-decoration-color:#000000;letter-spacing:normal;word-spacing:normal;text-transform:none;writing-mode:lr-tb;direction:ltr;text-orientation:mixed;dominant-baseline:auto;baseline-shift:baseline;text-anchor:start;white-space:normal;shape-padding:0;clip-rule:nonzero;display:inline;overflow:visible;visibility:visible;opacity:1;isolation:auto;mix-blend-mode:normal;color-interpolation:sRGB;color-interpolation-filters:linearRGB;solid-color:#000000;solid-opacity:1;vector-effect:none;fill:#000000;fill-opacity:1;fill-rule:nonzero;stroke:none;stroke-width:0.52899998;stroke-linecap:round;stroke-linejoin:round;stroke-miterlimit:4;stroke-dasharray:none;stroke-dashoffset:0;stroke-opacity:1;paint-order:normal;color-rendering:auto;image-rendering:auto;shape-rendering:auto;text-rendering:auto;enable-background:accumulate" d="m 8.4640366,281.38956 a 0.26462514,0.26460982 0 0 0 -0.1834357,0.078 l -5.557282,5.55625 a 0.26462514,0.26460982 0 0 0 0.1875631,0.45165 h 3.4390808 v 7.14427 a 0.26454176,0.26452644 0 0 0 0.2640541,0.26355 h 2.8566799 c -0.2990586,-0.45714 -0.4749006,-1.00183 -0.4749006,-1.5875 0,-1.12788 0.6466946,-2.1061 1.5874998,-2.58899 v -3.23133 h 3.439054 a 0.26462514,0.26460982 0 0 0 0.18759,-0.45165 l -5.5567528,-5.55625 a 0.26462514,0.26460982 0 0 0 -0.1891506,-0.078 z"></path><path style="color:#000000;font-style:normal;font-variant:normal;font-weight:normal;font-stretch:normal;font-size:medium;line-height:normal;font-family:sans-serif;font-variant-ligatures:normal;font-variant-position:normal;font-variant-caps:normal;font-variant-numeric:normal;font-variant-alternates:normal;font-feature-settings:normal;text-indent:0;text-align:start;text-decoration:none;text-decoration-line:none;text-decoration-style:solid;text-decoration-color:#000000;letter-spacing:normal;word-spacing:normal;text-transform:none;writing-mode:lr-tb;direction:ltr;text-orientation:mixed;dominant-baseline:auto;baseline-shift:baseline;text-anchor:start;white-space:normal;shape-padding:0;clip-rule:nonzero;display:inline;overflow:visible;visibility:visible;opacity:1;isolation:auto;mix-blend-mode:normal;color-interpolation:sRGB;color-interpolation-filters:linearRGB;solid-color:#000000;solid-opacity:1;vector-effect:none;fill:#000000;fill-opacity:1;fill-rule:nonzero;stroke:none;stroke-width:0.5291667;stroke-linecap:butt;stroke-linejoin:round;stroke-miterlimit:4;stroke-dasharray:none;stroke-dashoffset:0;stroke-opacity:1;paint-order:normal;color-rendering:auto;image-rendering:auto;shape-rendering:auto;text-rendering:auto;enable-background:accumulate" d="m 11.906213,290.91456 c -1.318498,0 -2.3812502,1.06278 -2.3812502,2.38125 0,1.31849 1.0627522,2.38125 2.3812502,2.38125 1.318472,0 2.38125,-1.06276 2.38125,-2.38125 0,-1.31847 -1.062778,-2.38125 -2.38125,-2.38125 z m 1.404038,1.38751 a 0.26460982,0.26460982 0 0 1 0.193278,0.4532 l -1.835547,1.83555 a 0.26460982,0.26460982 0 0 1 -0.375179,0 l -1.162182,-1.16169 a 0.26460982,0.26460982 0 1 1 0.375152,-0.3731 l 0.974619,0.97462 1.648487,-1.64848 a 0.26460982,0.26460982 0 0 1 0.181372,-0.0801 z"></path></g></svg>