<svg height='100px' width='100px'  fill="#000000" xmlns:x="http://ns.adobe.com/Extensibility/1.0/" xmlns:i="http://ns.adobe.com/AdobeIllustrator/10.0/" xmlns:graph="http://ns.adobe.com/Graphs/1.0/" xmlns="http://www.w3.org/2000/svg" xmlns:xlink="http://www.w3.org/1999/xlink" version="1.1" x="0px" y="0px" viewBox="0 0 100 100" style="enable-background:new 0 0 100 100;" xml:space="preserve"><g><g i:extraneous="self"><g><path d="M47.4,57.1h-7.9c-1.6,0-2.8,1.3-2.8,2.8v4.8c0,1.6,1.3,2.8,2.8,2.8h7.9c1.6,0,2.8-1.3,2.8-2.8v-4.8     C50.2,58.4,49,57.1,47.4,57.1z"></path><path d="M27.2,57.1h-7.9c-1.6,0-2.8,1.3-2.8,2.8v4.8c0,1.6,1.3,2.8,2.8,2.8h7.9c1.6,0,2.8-1.3,2.8-2.8v-4.8     C30,58.4,28.8,57.1,27.2,57.1z"></path><path d="M47.4,39.4h-7.9c-1.6,0-2.8,1.3-2.8,2.8v4.8c0,1.6,1.3,2.8,2.8,2.8h7.9c1.6,0,2.8-1.3,2.8-2.8v-4.8     C50.2,40.7,49,39.4,47.4,39.4z"></path><path d="M27.2,39.4h-7.9c-1.6,0-2.8,1.3-2.8,2.8v4.8c0,1.6,1.3,2.8,2.8,2.8h7.9c1.6,0,2.8-1.3,2.8-2.8v-4.8     C30,40.7,28.8,39.4,27.2,39.4z"></path><path d="M67.6,39.4h-7.9c-1.6,0-2.8,1.3-2.8,2.8v4.8c0,1.6,1.3,2.8,2.8,2.8h7.9c1.6,0,2.8-1.3,2.8-2.8v-4.8     C70.5,40.7,69.2,39.4,67.6,39.4z"></path><path d="M84.5,55.1V20.5c0-2.4-0.9-4.6-2.4-6.3V14H82c-1.8-2-4.3-3.2-7.1-3.2h-7V6.6c0-1.8-1.4-3.2-3.2-3.2h-4.8     c-1.8,0-3.2,1.4-3.2,3.2v4.3H30.5V6.6c0-1.8-1.4-3.2-3.2-3.2h-4.8c-1.8,0-3.2,1.4-3.2,3.2v4.3h-7.1c-2.8,0-5.4,1.3-7.1,3.2H4.9     v0.1c-1.5,1.7-2.4,3.9-2.4,6.3v51.4c0,5.3,4.3,9.6,9.6,9.6h43c2.8,8.8,11,15.1,20.7,15.1c12,0,21.7-9.7,21.7-21.7     C97.5,66.1,92.1,58.4,84.5,55.1z M54.1,75c0,0,0,0.1,0,0.1h-42c-1.8,0-3.2-1.4-3.2-3.2V32.6h69.1v20.8c-0.7-0.1-1.5-0.1-2.3-0.1     C63.8,53.3,54.1,63,54.1,75z M75.8,90.2c-8.4,0-15.3-6.9-15.3-15.3s6.9-15.3,15.3-15.3S91.1,66.5,91.1,75S84.2,90.2,75.8,90.2z"></path><path d="M82.9,67.8c-1.3-1.3-3.3-1.3-4.5,0l-2.6,2.6l-2.6-2.6c-1.3-1.3-3.3-1.3-4.5,0s-1.3,3.3,0,4.5l2.6,2.6l-2.6,2.6     c-1.3,1.3-1.3,3.3,0,4.5c0.6,0.6,1.4,0.9,2.3,0.9s1.6-0.3,2.3-0.9l2.6-2.6l2.6,2.6c0.6,0.6,1.4,0.9,2.3,0.9s1.6-0.3,2.3-0.9     c1.3-1.3,1.3-3.3,0-4.5L80.3,75l2.6-2.6C84.2,71.1,84.2,69.1,82.9,67.8z"></path></g></g></g></svg>