<svg xmlns="http://www.w3.org/2000/svg" xmlns:xlink="http://www.w3.org/1999/xlink" width="100" height="100" viewBox="0 0 100 100"><g transform="translate(50 50) scale(0.69 0.69) rotate(90) translate(-50 -50)" style="fill:#000000"><svg fill="#000000" xmlns="http://www.w3.org/2000/svg" xmlns:xlink="http://www.w3.org/1999/xlink" version="1.1" x="0px" y="0px" viewBox="0 0 100 100" enable-background="new 0 0 100 100" xml:space="preserve"><path d="M881.5-56.2l-6.7,8c-0.9,1.1-0.5,2,0.9,2h5.6l3.7,0l5.6,0c1.4,0,1.8-0.9,0.9-2l-6.7-8C883.9-57.3,882.4-57.3,881.5-56.2z"></path><path d="M887.4-31c0,1.3-1.1,2.4-2.4,2.4h-3.6c-1.3,0-2.4-1.1-2.4-2.4v-16.2c0-1.3,1.1-2.4,2.4-2.4h3.6c1.3,0,2.4,1.1,2.4,2.4V-31z"></path><path d="M910.4-45.8L900-44.9c-1.4,0.1-1.8,1-0.7,2l4,4l2.6,2.6l4,4c1,1,1.9,0.7,2-0.7l0.9-10.4C912.8-44.8,911.8-45.9,910.4-45.8z"></path><path d="M896.6-23.8c-0.9,0.9-2.4,0.9-3.4,0l-2.6-2.6c-0.9-0.9-0.9-2.4,0-3.4l11.5-11.5c0.9-0.9,2.4-0.9,3.4,0l2.6,2.6  c0.9,0.9,0.9,2.4,0,3.4L896.6-23.8z"></path><path d="M856.1-45.8l10.4,0.9c1.4,0.1,1.8,1,0.7,2l-4,4l-2.6,2.6l-4,4c-1,1-1.9,0.7-2-0.7l-0.9-10.4  C853.6-44.8,854.7-45.9,856.1-45.8z"></path><path d="M869.8-23.8c0.9,0.9,2.4,0.9,3.4,0l2.6-2.6c0.9-0.9,0.9-2.4,0-3.4l-11.5-11.5c-0.9-0.9-2.4-0.9-3.4,0l-2.6,2.6  c-0.9,0.9-0.9,2.4,0,3.4L869.8-23.8z"></path><circle cx="883.2" cy="-20.1" r="5.7"></circle><g><path d="M38.4,33.9h4.9V57c0,2,1.6,3.6,3.6,3.6h5.5c2,0,3.6-1.6,3.6-3.6V33.9l4.9,0c2.1,0,2.8-1.3,1.4-3l-10.1-12   c-1.4-1.6-3.6-1.6-5,0l-10.1,12C35.7,32.6,36.3,33.9,38.4,33.9z"></path><path d="M90.5,34.7L74.9,36c-2.1,0.2-2.6,1.6-1.1,3.1l3.5,3.5L61,58.9c-1.4,1.4-1.4,3.6,0,5l3.9,3.9c1.4,1.4,3.6,1.4,5,0l16.3-16.3   l3.5,3.5c1.5,1.5,2.9,1,3.1-1.1l1.3-15.6C94.3,36.1,92.7,34.5,90.5,34.7z"></path><path d="M22.2,42.6l3.5-3.5c1.5-1.5,1-2.9-1.1-3.1L9,34.7c-2.1-0.2-3.7,1.4-3.5,3.5l1.3,15.6C6.9,56,8.3,56.5,9.8,55l3.5-3.5   l16.3,16.3c1.4,1.4,3.6,1.4,5,0l3.9-3.9c1.4-1.4,1.4-3.6,0-5L22.2,42.6z"></path><circle cx="49.7" cy="73.3" r="8.5"></circle></g></svg></g></svg>