<svg height='100px' width='100px'  fill="#000000" xmlns:x="http://ns.adobe.com/Extensibility/1.0/" xmlns:i="http://ns.adobe.com/AdobeIllustrator/10.0/" xmlns:graph="http://ns.adobe.com/Graphs/1.0/" xmlns="http://www.w3.org/2000/svg" xmlns:xlink="http://www.w3.org/1999/xlink" version="1.1" x="0px" y="0px" viewBox="0 0 100 100" style="enable-background:new 0 0 100 100;" xml:space="preserve"><g><g i:extraneous="self"><g><path d="M36,37.5l6-2.7c2.3,1.5,5.1,2.4,8.1,2.4c8.3,0,15.1-6.8,15.1-15.1C65.2,13.7,58.5,7,50.1,7c-8.3,0-15.1,6.7-15.1,15.1     c0,3,0.9,5.8,2.4,8.1l-2.7,6C34.4,37,35.2,37.9,36,37.5z M58,19.8c1.3,0,2.3,1,2.3,2.3c0,1.3-1,2.3-2.3,2.3c-1.3,0-2.3-1-2.3-2.3     C55.7,20.8,56.8,19.8,58,19.8z M50.1,19.8c1.3,0,2.3,1,2.3,2.3c0,1.3-1,2.3-2.3,2.3c-1.3,0-2.3-1-2.3-2.3     C47.8,20.8,48.9,19.8,50.1,19.8z M42.3,19.8c1.3,0,2.3,1,2.3,2.3c0,1.3-1,2.3-2.3,2.3c-1.3,0-2.3-1-2.3-2.3     C40,20.8,41,19.8,42.3,19.8z"></path><path d="M33.3,59.4h-6.7c-0.7,0-1.3-0.6-1.3-1.3V43.2c0-5.8-4.5-10.8-10.2-11.1C8.8,31.8,3.7,36.8,3.7,42.9v26     c0,3.3,2.7,6.1,6.1,6.1h13.5c0.7,0,1.3,0.6,1.3,1.3V90c0,2.6,2.1,4.7,4.7,4.7h6.1c2.6,0,4.7-2.1,4.7-4.7V66.2     C40.1,62.5,37,59.4,33.3,59.4z"></path><circle cx="14.5" cy="17" r="12"></circle><path d="M85.5,32.1L85.5,32.1c-5.9,0-10.8,4.8-10.8,10.8v15.2c0,0.7-0.6,1.3-1.3,1.3h-6.7c-3.7,0-6.7,3-6.7,6.7V90     c0,2.6,2.1,4.7,4.7,4.7h6.1c2.6,0,4.7-2.1,4.7-4.7V76.3c0-0.7,0.6-1.3,1.3-1.3h13.5c3.3,0,6.1-2.7,6.1-6.1v-26     C96.3,36.9,91.5,32.1,85.5,32.1z"></path><circle cx="85.5" cy="17" r="12"></circle><path d="M64.8,54c1.9,0,3.4-1.5,3.4-3.4c0-1.9-1.5-3.4-3.4-3.4H35.1c-1.9,0-3.4,1.5-3.4,3.4c0,1.9,1.5,3.4,3.4,3.4h11.5v37.6     c0,1.9,1.5,3.4,3.4,3.4c1.9,0,3.4-1.5,3.4-3.4V54H64.8z"></path></g></g></g></svg>