<svg height='100px' width='100px'  fill="#000000" xmlns="http://www.w3.org/2000/svg" xmlns:xlink="http://www.w3.org/1999/xlink" version="1.1" x="0px" y="0px" viewBox="0 0 100 100" enable-background="new 0 0 100 100" xml:space="preserve"><path d="M10.4,43.7c-1.5-4-2.5-8.1-2.2-12.4c0.2-2.7,1.2-4.9,3.2-6.8c2.1-2,4.1-4.1,6.2-6.2c2.7-2.7,6.1-2.7,8.9,0  c1.7,1.7,3.3,3.3,5,5c1.6,1.6,3.3,3.2,4.9,4.9c2.8,2.9,2.9,6.2,0,9.1c-2,2-4.1,4.1-6.1,6.1c-0.5,0.5-0.6,1-0.3,1.6  c1.4,3.3,3.3,6.2,5.5,8.9c4.5,5.5,9.5,10.3,15.5,14.1c1.3,0.8,2.7,1.4,4,2.1c0.7,0.4,1.2,0.3,1.7-0.3c2-2.1,4.1-4.1,6.2-6.2  c2.7-2.7,6.1-2.7,8.9,0c3.3,3.3,6.7,6.6,10,9.9c2.8,2.8,2.8,6.2,0,9c-1.9,1.9-3.9,3.7-5.7,5.7c-2.6,2.9-5.8,3.8-9.6,3.6  C61,91.6,56,89.8,51.2,87.4C40.5,82.2,31.4,75,23.8,66C18.1,59.2,13.5,51.9,10.4,43.7z M91.9,49.7c0-23-18.7-41.6-41.6-41.6V16  C68.8,16,84,31.2,84,49.7H91.9z M69.1,49.7H77C77,35,65,23,50.3,23v7.9c5,0,9.8,2,13.3,5.5C67.1,40,69.1,44.7,69.1,49.7z"></path></svg>