<svg height='100px' width='100px'  fill="#000000" xmlns="http://www.w3.org/2000/svg" xmlns:xlink="http://www.w3.org/1999/xlink" version="1.1" x="0px" y="0px" viewBox="0 0 100 100" enable-background="new 0 0 100 100" xml:space="preserve"><path d="M82.742,19.649L13.859,88.533c-1.114,1.114-2.92,1.114-4.034,0l-2.576-2.576c-1.114-1.114-1.114-2.92,0-4.034l20.319-20.319  c-5.644-6.931-10.325-14.444-13.457-22.875c-1.608-4.329-2.758-8.763-2.408-13.453c0.216-2.894,1.303-5.356,3.436-7.386  c2.29-2.181,4.472-4.475,6.728-6.693c2.954-2.905,6.649-2.899,9.61,0.008c1.827,1.794,3.625,3.619,5.436,5.429  c1.758,1.757,3.522,3.509,5.272,5.274c3.086,3.113,3.092,6.744,0.018,9.833c-2.205,2.216-4.397,4.445-6.645,6.616  c-0.594,0.573-0.641,1.045-0.341,1.767c1.309,3.144,3.136,5.967,5.207,8.624L76.133,13.04c1.114-1.114,2.92-1.114,4.034,0  l2.576,2.576C83.856,16.73,83.856,18.536,82.742,19.649z M91.347,71.067c-3.582-3.608-7.178-7.203-10.789-10.781  c-2.955-2.928-6.65-2.922-9.593-0.006c-2.247,2.227-4.499,4.45-6.698,6.723c-0.598,0.618-1.11,0.747-1.857,0.342  c-1.452-0.787-2.994-1.424-4.388-2.3c-1.638-1.029-3.209-2.133-4.72-3.304L40.414,74.63c5.454,4.513,11.427,8.362,17.931,11.523  c5.205,2.53,10.61,4.474,16.469,4.796c4.031,0.221,7.555-0.795,10.364-3.936c1.93-2.158,4.086-4.113,6.128-6.173  C94.327,77.791,94.351,74.094,91.347,71.067z"></path></svg>